<svg width="2000" height="382" viewBox="0 0 2000 382" fill="none" xmlns="http://www.w3.org/2000/svg">
<path d="M1481.51 3.23996C1447.52 8.90524 1399.52 35.7408 1376.86 61.6818C1336.31 107.899 1319.02 169.322 1330.35 226.571C1348.53 317.216 1426.65 381.621 1518.18 381.621C1590.93 381.323 1656.82 340.473 1688.43 275.77C1702.74 246.549 1708.1 223.888 1708.1 190.791C1707.81 137.119 1690.21 95.3753 1651.45 56.3147C1606.73 11.5888 1546.21 -7.49426 1481.51 3.23996ZM1547.7 67.0489C1571.55 73.3105 1586.76 81.6594 1604.35 97.7607C1631.48 123.404 1645.19 154.115 1645.19 190.492C1645.19 259.967 1594.81 313.936 1525.34 318.408C1444.84 323.477 1380.44 253.109 1391.77 172.602C1402.2 98.9534 1476.74 48.5622 1547.7 67.0489Z" fill="#07A5E9"/>
<path d="M1819.32 4.1328C1771.61 15.7615 1740.9 50.6477 1735.84 98.6535C1732.85 127.874 1739.41 147.256 1759.69 169.022C1782.05 192.876 1801.43 203.908 1858.08 223.29C1884.91 232.831 1910.55 242.671 1914.73 245.653C1934.4 258.176 1939.77 282.924 1927.25 301.411C1917.41 316.021 1901.61 322.879 1876.26 324.37C1851.82 325.861 1824.98 318.109 1804.41 303.796C1797.55 299.026 1790.7 295.149 1789.2 295.149C1787.71 295.149 1777.58 304.393 1766.55 315.425C1743.59 338.682 1743.29 337.49 1773.7 354.486C1803.81 371.183 1831.24 379.234 1866.13 380.725C1909.06 383.11 1935.6 376.252 1961.83 356.871C1982.7 341.366 2000.29 302.305 2000 271.295C1999.4 221.799 1951.99 180.055 1868.81 156.499C1835.12 146.659 1825.58 142.485 1813.06 130.26C1796.96 115.053 1796.36 95.0754 1810.97 77.4833C1833.03 51.5422 1884.61 50.9459 1921.88 76.5887L1937.68 87.323L1960.34 64.96L1982.7 42.5971L1966.6 32.161C1924.86 4.72914 1864.34 -6.89959 1819.32 4.1328Z" fill="#07A5E9"/>
<path d="M162.199 11.2952C159.217 16.3641 1.79414 365.226 0.303393 370.295C-1.18736 375.066 1.79414 375.662 32.8017 375.662H67.0889L80.8038 344.95L94.5187 314.537L170.547 313.642C212.586 313.344 246.873 312.45 246.873 311.853C246.873 311.257 240.91 297.541 233.754 281.44L220.636 251.92L172.336 251.026C128.508 250.43 124.334 249.833 126.123 245.361C135.067 221.805 197.678 87.031 198.871 88.2237C199.765 89.1182 229.58 153.822 264.762 231.943L328.864 374.171L364.046 375.066C396.842 375.662 398.929 375.364 396.544 370.593C395.053 367.611 357.785 285.018 313.659 186.919L233.754 8.90978H198.573C179.491 8.90978 163.093 10.1025 162.199 11.2952Z" fill="#07A5E9"/>
<path d="M849.137 40.2114V71.5195H880.442H911.748V40.2114V8.90328H880.442H849.137V40.2114Z" fill="#07A5E9"/>
<path d="M1194.1 52.7395L1164.88 60.492L1166.07 183.041C1166.67 274.58 1168.16 308.274 1171.14 316.622C1177.4 334.513 1195.29 355.087 1212.88 364.926C1228.68 373.872 1230.77 374.17 1270.42 375.064C1309.48 376.257 1311.87 375.959 1310.08 370.592C1309.18 367.61 1305.61 353.596 1302.03 338.985L1295.77 313.044H1270.42C1247.76 313.044 1244.78 312.448 1238.22 305.59C1231.07 298.732 1230.77 297.241 1230.77 253.41V208.684H1256.11C1274.3 208.684 1281.46 207.789 1281.46 204.808C1281.46 203.019 1278.18 189.004 1274.6 174.394L1267.74 147.558L1249.26 146.664L1230.77 145.769V95.3782C1230.77 56.6157 1229.88 44.6888 1227.19 44.987C1225.11 44.987 1210.2 48.5651 1194.1 52.7395Z" fill="#07A5E9"/>
<path d="M452.299 111.179C415.627 124.895 395.949 152.029 395.949 189.002C395.949 228.063 423.975 255.196 485.99 275.472C516.998 285.61 526.837 290.977 528.924 299.326C536.08 328.547 480.326 333.616 450.511 306.482C443.951 300.519 443.951 300.519 435.603 306.482C431.131 309.762 420.696 319.303 412.944 327.354L398.633 341.965L409.962 350.91C437.392 372.676 471.083 382.814 509.246 381.025C530.117 380.131 537.272 378.342 550.689 371.185C578.417 355.979 592.728 331.528 592.728 298.729C592.728 260.862 562.317 231.939 501.494 212.259C468.4 201.525 462.437 198.543 460.051 190.791C457.07 180.951 461.542 172.602 472.276 168.13C492.252 159.781 513.42 163.955 532.502 180.355L542.639 188.704L563.807 167.533L584.976 146.363L576.628 137.418C572.156 132.647 558.739 124.298 547.111 118.931C527.731 109.986 522.663 108.793 494.339 108.197C473.468 107.601 459.455 108.495 452.299 111.179Z" fill="#07A5E9"/>
<path d="M675.905 111.18C639.233 124.896 619.555 152.626 619.555 190.494C619.853 228.362 648.475 255.198 710.788 275.474C740.902 285.611 753.722 293.066 753.722 301.415C753.722 329.443 702.738 332.723 673.818 306.185L666.96 299.924L645.494 321.392L624.027 343.159L632.971 350.613C638.04 354.787 649.966 361.944 659.805 366.416C711.385 391.164 771.313 385.201 798.146 352.7C815.141 332.126 821.7 295.749 812.159 272.79C801.724 248.042 764.157 223.293 715.559 208.981C684.849 199.738 674.414 186.916 687.235 174.393C703.037 158.292 733.15 160.975 756.107 180.356L766.244 188.705L787.413 167.535L808.582 146.365L800.233 137.42C795.761 132.649 782.344 124.3 770.717 118.933C751.337 109.988 746.268 108.795 717.944 108.199C697.074 107.602 683.061 108.497 675.905 111.18Z" fill="#07A5E9"/>
<path d="M997.016 112.067C976.443 118.627 953.188 142.481 947.523 162.458C932.019 217.919 960.343 253.401 1039.05 277.255C1065.59 285.306 1075.73 292.76 1075.73 303.792C1075.73 321.683 1053.07 329.137 1024.45 320.788C1015.8 318.403 1005.07 312.737 1001.19 308.563C997.314 304.389 992.842 301.109 990.755 301.109C988.966 301.109 978.531 310.352 967.201 321.384L947.225 341.958L956.766 350.009C988.966 377.143 1044.42 388.771 1084.97 376.845C1115.68 367.601 1141.32 332.715 1141.32 299.916C1141.32 261.452 1106.44 229.845 1042.63 210.464C1014.9 202.115 1007.15 196.152 1007.15 183.927C1007.15 174.385 1017.29 166.931 1033.39 164.844C1048.89 162.757 1064.99 168.422 1078.71 180.647L1089.44 190.487L1111.8 168.124L1133.87 145.761L1123.43 136.517C1117.77 131.448 1104.35 123.398 1093.62 118.329C1076.62 110.576 1070.36 109.086 1042.93 108.489C1020.57 107.595 1007.45 108.787 997.016 112.067Z" fill="#07A5E9"/>
<path d="M849.137 244.466V375.662H880.442H911.748V244.466V113.27H880.442H849.137V244.466Z" fill="#07A5E9"/>
</svg>
